# xmcd
#
# Track frame offsets: 
#        150
#        19301
#        60832
#        77533
#        103997
#        125384
#        139763
#        157430
#        174010
#        195869
#        220178
#        239564
#        252559
#
# Disc length: 3491 seconds
#
# Revision: 0
# Processed by: cddbd v1.5.2PL0 Copyright (c) Steve Scherf et al.
# Submitted via: ExactAudioCopy v1.0b3
#
DISCID=b00da10d
DTITLE=Mahalia Jackson -  Complete Mahalia Jackson Vol. 12: 1961
DYEAR=2014
DGENRE=Gospel
TTITLE0=Nobody But You Lord
TTITLE1=The Love Of God
TTITLE2=Everytime I Fell The Spirit I Pray
TTITLE3=Have You Any Time For Jesus
TTITLE4=Little David Play On Your Harp
TTITLE5=I Want To Be A Christian
TTITLE6=Rockin In Jerusalem
TTITLE7=Trail To Heaven
TTITLE8=I Know Prayer Exchange Things
TTITLE9=The Only Hope We-have
TTITLE10=What A Difference Since My Heart's Been Changed
TTITLE11=The Holy Bible, Pt. 1
TTITLE12=The Holy Bible, Pt. 2
EXTD=
EXTT0=
EXTT1=
EXTT2=
EXTT3=
EXTT4=
EXTT5=
EXTT6=
EXTT7=
EXTT8=
EXTT9=
EXTT10=
EXTT11=
EXTT12=
PLAYORDER=
